<?xml version="1.0" encoding="UTF-8" standalone="no"?>
<!-- Created with Inkscape (http://www.inkscape.org/) -->

<svg
   xmlns:dc="http://purl.org/dc/elements/1.1/"
   xmlns:cc="http://creativecommons.org/ns#"
   xmlns:rdf="http://www.w3.org/1999/02/22-rdf-syntax-ns#"
   xmlns:svg="http://www.w3.org/2000/svg"
   xmlns="http://www.w3.org/2000/svg"
   xmlns:sodipodi="http://sodipodi.sourceforge.net/DTD/sodipodi-0.dtd"
   xmlns:inkscape="http://www.inkscape.org/namespaces/inkscape"
   width="91.386658mm"
   height="41.932457mm"
   viewBox="0 0 323.811 148.57956"
   id="svg2"
   version="1.1"
   inkscape:version="0.91 r13725"
   sodipodi:docname="logo-white.svg">
  <defs
     id="defs4" />
  <sodipodi:namedview
     id="base"
     pagecolor="#ffffff"
     bordercolor="#666666"
     borderopacity="1.0"
     inkscape:pageopacity="0.0"
     inkscape:pageshadow="2"
     inkscape:zoom="1.8369464"
     inkscape:cx="-48.500402"
     inkscape:cy="112.90209"
     inkscape:document-units="px"
     inkscape:current-layer="layer1"
     showgrid="false"
     inkscape:snap-bbox="true"
     inkscape:bbox-nodes="true"
     inkscape:bbox-paths="false"
     inkscape:object-nodes="true"
     inkscape:snap-text-baseline="true"
     fit-margin-top="0"
     fit-margin-left="0"
     fit-margin-right="0"
     fit-margin-bottom="0"
     inkscape:window-width="1920"
     inkscape:window-height="1031"
     inkscape:window-x="0"
     inkscape:window-y="1"
     inkscape:window-maximized="1" />
  <metadata
     id="metadata7">
    <rdf:RDF>
      <cc:Work
         rdf:about="">
        <dc:format>image/svg+xml</dc:format>
        <dc:type
           rdf:resource="http://purl.org/dc/dcmitype/StillImage" />
        <dc:title></dc:title>
      </cc:Work>
    </rdf:RDF>
  </metadata>
  <g
     inkscape:label="Layer 1"
     inkscape:groupmode="layer"
     id="layer1"
     transform="translate(-276.01361,-473.77187)">
    <g
       id="g4933">
      <g
         id="text4201"
         style="font-style:normal;font-variant:normal;font-weight:normal;font-stretch:normal;font-size:45px;line-height:100%;font-family:monospace;-inkscape-font-specification:'monospace, Normal';text-align:center;letter-spacing:0px;word-spacing:0px;writing-mode:lr-tb;text-anchor:middle;fill:#ffffff;fill-opacity:1;stroke:none;stroke-width:1px;stroke-linecap:butt;stroke-linejoin:miter;stroke-opacity:1">
        <path
           id="path4239"
           style="font-style:normal;font-variant:normal;font-weight:normal;font-stretch:normal;font-size:45px;line-height:100%;font-family:'courier new';-inkscape-font-specification:'courier new';text-align:center;writing-mode:lr-tb;text-anchor:middle;fill:#ffffff"
           d="m 301.32611,488.18594 8.76709,11.31592 0.70313,0 q 0.65918,0 0.94482,0.26367 0.28564,0.2417 0.28564,0.65918 0,0.39551 -0.28564,0.65918 -0.28564,0.26367 -0.94482,0.26367 l -5.93262,0 q -0.65918,0 -0.94483,-0.26367 -0.28564,-0.26367 -0.28564,-0.65918 0,-0.41748 0.28564,-0.65918 0.28565,-0.26367 0.94483,-0.26367 l 2.94433,0 -7.62451,-9.7998 -7.53662,9.7998 2.94434,0 q 0.65918,0 0.94482,0.26367 0.28565,0.2417 0.28565,0.65918 0,0.39551 -0.28565,0.65918 -0.28564,0.26367 -0.94482,0.26367 l -5.88867,0 q -0.65918,0 -0.94483,-0.26367 -0.28564,-0.26367 -0.28564,-0.65918 0,-0.30761 0.17578,-0.54931 0.17578,-0.2417 0.39551,-0.30762 0.21972,-0.0659 1.34033,-0.0659 l 8.65722,-11.31592 -8.26171,-10.70068 -0.68116,0 q -0.65918,0 -0.94482,-0.2417 -0.28565,-0.26367 -0.28565,-0.68115 0,-0.41748 0.28565,-0.65918 0.28564,-0.26367 0.94482,-0.26367 l 5.03174,0 q 0.68115,0 0.9668,0.26367 0.28564,0.2417 0.28564,0.65918 0,0.41748 -0.28564,0.68115 -0.28565,0.2417 -0.9668,0.2417 l -2.06543,0 7.11914,9.20654 7.0752,-9.20654 -2.06543,0 q -0.68115,0 -0.9668,-0.2417 -0.28564,-0.26367 -0.28564,-0.68115 0,-0.41748 0.28564,-0.65918 0.28565,-0.26367 0.9668,-0.26367 l 5.05371,0 q 0.65918,0 0.94482,0.26367 0.28565,0.2417 0.28565,0.65918 0,0.41748 -0.28565,0.68115 -0.28564,0.2417 -0.94482,0.2417 l -0.70313,0 -8.21777,10.70068 z"
           inkscape:connector-curvature="0" />
        <path
           id="path4241"
           style="font-style:normal;font-variant:normal;font-weight:normal;font-stretch:normal;font-size:45px;line-height:100%;font-family:'courier new';-inkscape-font-specification:'courier new';text-align:center;writing-mode:lr-tb;text-anchor:middle;fill:#ffffff"
           d="m 337.18549,492.27286 -18.8086,0 q 0.4834,3.58154 2.98828,5.77881 2.52686,2.17529 6.24024,2.17529 2.06543,0 4.32861,-0.68115 2.26318,-0.68116 3.69141,-1.80176 0.41748,-0.32959 0.72509,-0.32959 0.35157,0 0.61524,0.28564 0.26367,0.26368 0.26367,0.63721 0,0.37354 -0.35156,0.7251 -1.05469,1.09863 -3.75733,2.06543 -2.68066,0.94482 -5.51513,0.94482 -4.7461,0 -7.93213,-3.09814 -3.16406,-3.12012 -3.16406,-7.53662 0,-4.021 2.9663,-6.89942 2.98829,-2.87842 7.38282,-2.87842 4.52636,0 7.44873,2.96631 2.92236,2.94434 2.87842,7.64649 z m -1.86768,-1.86768 q -0.54932,-3.0542 -2.90039,-4.96582 -2.3291,-1.91162 -5.55908,-1.91162 -3.22998,0 -5.55908,1.88965 -2.32911,1.88965 -2.9004,4.98779 l 16.91895,0 z"
           inkscape:connector-curvature="0" />
        <path
           id="path4243"
           style="font-style:normal;font-variant:normal;font-weight:normal;font-stretch:normal;font-size:45px;line-height:100%;font-family:'courier new';-inkscape-font-specification:'courier new';text-align:center;writing-mode:lr-tb;text-anchor:middle;fill:#ffffff"
           d="m 348.21576,482.31924 0,2.79053 q 1.93359,-1.95556 3.49365,-2.70263 1.56006,-0.74708 3.51563,-0.74708 2.10937,0 3.84521,0.90088 1.23047,0.65918 2.21924,2.19727 1.01074,1.51611 1.01074,3.12012 l 0,11.62353 1.56006,0 q 0.65918,0 0.94482,0.26367 0.28565,0.2417 0.28565,0.65918 0,0.39551 -0.28565,0.65918 -0.28564,0.26367 -0.94482,0.26367 l -4.94385,0 q -0.68115,0 -0.96679,-0.26367 -0.28565,-0.26367 -0.28565,-0.65918 0,-0.41748 0.28565,-0.65918 0.28564,-0.26367 0.96679,-0.26367 l 1.53809,0 0,-11.31592 q 0,-1.95556 -1.42822,-3.29589 -1.42823,-1.36231 -3.82325,-1.36231 -1.82373,0 -3.16406,0.74707 -1.34033,0.7251 -3.82324,3.64746 l 0,11.57959 2.0874,0 q 0.65918,0 0.94483,0.26367 0.28564,0.2417 0.28564,0.65918 0,0.39551 -0.28564,0.65918 -0.28565,0.26367 -0.94483,0.26367 l -6.02051,0 q -0.65918,0 -0.94482,-0.26367 -0.28564,-0.26367 -0.28564,-0.65918 0,-0.41748 0.28564,-0.65918 0.28564,-0.26367 0.94482,-0.26367 l 2.08741,0 0,-15.31494 -1.56006,0 q -0.65918,0 -0.94483,-0.26367 -0.28564,-0.26367 -0.28564,-0.68115 0,-0.39551 0.28564,-0.65918 0.28565,-0.26368 0.94483,-0.26368 l 3.40576,0 z"
           inkscape:connector-curvature="0" />
        <path
           id="path4245"
           style="font-style:normal;font-variant:normal;font-weight:normal;font-stretch:normal;font-size:45px;line-height:100%;font-family:'courier new';-inkscape-font-specification:'courier new';text-align:center;writing-mode:lr-tb;text-anchor:middle;fill:#ffffff"
           d="m 391.47992,491.87735 q 0,4.21875 -3.03223,7.20703 -3.01025,2.98828 -7.27295,2.98828 -4.30664,0 -7.31689,-2.98828 -3.01025,-3.01025 -3.01025,-7.20703 0,-4.21875 3.01025,-7.20703 3.01025,-3.01026 7.31689,-3.01026 4.2627,0 7.27295,2.98829 3.03223,2.98828 3.03223,7.229 z m -1.86768,0 q 0,-3.47168 -2.48291,-5.91064 -2.46093,-2.43897 -5.97656,-2.43897 -3.51562,0 -5.99853,2.46094 -2.46094,2.43896 -2.46094,5.88867 0,3.42773 2.46094,5.88867 2.48291,2.46094 5.99853,2.46094 3.51563,0 5.97656,-2.43897 2.48291,-2.46093 2.48291,-5.91064 z"
           inkscape:connector-curvature="0" />
        <path
           id="path4247"
           style="font-style:normal;font-variant:normal;font-weight:normal;font-stretch:normal;font-size:45px;line-height:100%;font-family:'courier new';-inkscape-font-specification:'courier new';text-align:center;writing-mode:lr-tb;text-anchor:middle;fill:#ffffff"
           d="m 401.19183,473.77188 0,12.23877 q 3.33985,-4.35059 8.06397,-4.35059 4.04297,0 6.92139,2.94434 2.87841,2.92236 2.87841,7.18506 0,4.30664 -2.92236,7.29492 -2.90039,2.98828 -6.87744,2.98828 -4.83399,0 -8.06397,-4.35058 l 0,3.62548 -4.32861,0 q -0.65918,0 -0.94482,-0.26367 -0.28565,-0.26367 -0.28565,-0.65918 0,-0.41748 0.28565,-0.65918 0.28564,-0.26367 0.94482,-0.26367 l 2.48291,0 0,-23.8623 -2.48291,0 q -0.65918,0 -0.94482,-0.26367 -0.28565,-0.26368 -0.28565,-0.68116 0,-0.39551 0.28565,-0.65918 0.28564,-0.26367 0.94482,-0.26367 l 4.32861,0 z m 16.01807,18.10547 q 0,-3.49365 -2.39502,-5.91064 -2.39502,-2.43897 -5.60303,-2.43897 -3.208,0 -5.60302,2.43897 -2.39502,2.41699 -2.39502,5.91064 0,3.49365 2.39502,5.93262 2.39502,2.41699 5.60302,2.41699 3.20801,0 5.60303,-2.41699 2.39502,-2.43897 2.39502,-5.93262 z"
           inkscape:connector-curvature="0" />
        <path
           id="path4249"
           style="font-style:normal;font-variant:normal;font-weight:normal;font-stretch:normal;font-size:45px;line-height:100%;font-family:'courier new';-inkscape-font-specification:'courier new';text-align:center;writing-mode:lr-tb;text-anchor:middle;fill:#ffffff"
           d="m 436.06244,473.77188 0,25.72998 7.25098,0 q 0.68115,0 0.96679,0.26367 0.28565,0.2417 0.28565,0.65918 0,0.39551 -0.28565,0.65918 -0.28564,0.26367 -0.96679,0.26367 l -16.34766,0 q -0.65918,0 -0.94482,-0.26367 -0.28565,-0.26367 -0.28565,-0.65918 0,-0.41748 0.28565,-0.65918 0.28564,-0.26367 0.94482,-0.26367 l 7.25098,0 0,-23.8623 -5.31739,0 q -0.65918,0 -0.96679,-0.26367 -0.28565,-0.26368 -0.28565,-0.68116 0,-0.39551 0.28565,-0.65918 0.28564,-0.26367 0.96679,-0.26367 l 7.16309,0 z"
           inkscape:connector-curvature="0" />
        <path
           id="path4251"
           style="font-style:normal;font-variant:normal;font-weight:normal;font-stretch:normal;font-size:45px;line-height:100%;font-family:'courier new';-inkscape-font-specification:'courier new';text-align:center;writing-mode:lr-tb;text-anchor:middle;fill:#ffffff"
           d="m 467.41742,501.34756 0,-2.65869 q -4.021,3.38379 -8.59131,3.38379 -3.31787,0 -5.18555,-1.66992 -1.86767,-1.69189 -1.86767,-4.13086 0,-2.68066 2.46094,-4.68017 2.46093,-1.99952 7.18505,-1.99952 1.27442,0 2.76856,0.17578 1.49414,0.15381 3.22998,0.50538 l 0,-2.98829 q 0,-1.51611 -1.40625,-2.63671 -1.40625,-1.12061 -4.21875,-1.12061 -2.15332,0 -6.04248,1.25244 -0.70313,0.21973 -0.90088,0.21973 -0.35156,0 -0.61523,-0.26367 -0.2417,-0.26368 -0.2417,-0.65918 0,-0.37354 0.21972,-0.59326 0.30762,-0.32959 2.48291,-0.90088 3.42774,-0.92286 5.18555,-0.92286 3.49365,0 5.44922,1.73584 1.95557,1.71387 1.95557,3.88916 l 0,12.2168 2.46093,0 q 0.68116,0 0.9668,0.26367 0.28564,0.2417 0.28564,0.65918 0,0.39551 -0.28564,0.65918 -0.28564,0.26367 -0.9668,0.26367 l -4.32861,0 z m 0,-9.18457 q -1.29639,-0.37353 -2.74658,-0.54931 -1.4502,-0.17578 -3.0542,-0.17578 -4.021,0 -6.28418,1.73584 -1.71387,1.29638 -1.71387,3.09814 0,1.66992 1.29639,2.8125 1.31836,1.14258 3.82324,1.14258 2.39502,0 4.43848,-0.94482 2.06543,-0.9668 4.24072,-3.0542 l 0,-4.06495 z"
           inkscape:connector-curvature="0" />
        <path
           id="path4253"
           style="font-style:normal;font-variant:normal;font-weight:normal;font-stretch:normal;font-size:45px;line-height:100%;font-family:'courier new';-inkscape-font-specification:'courier new';text-align:center;writing-mode:lr-tb;text-anchor:middle;fill:#ffffff"
           d="m 498.13519,473.77188 0,25.72998 2.46094,0 q 0.68115,0 0.9668,0.26367 0.28564,0.2417 0.28564,0.65918 0,0.39551 -0.28564,0.65918 -0.28565,0.26367 -0.9668,0.26367 l -4.32861,0 0,-3.66943 q -3.20801,4.39453 -8.15186,4.39453 -2.50488,0 -4.81201,-1.31836 -2.28516,-1.34033 -3.62549,-3.80127 -1.31836,-2.46093 -1.31836,-5.07568 0,-2.63672 1.31836,-5.07568 1.34033,-2.46094 3.62549,-3.80127 2.30713,-1.34034 4.83398,-1.34034 4.83399,0 8.12989,4.39454 l 0,-10.41504 -2.46094,0 q -0.68115,0 -0.9668,-0.26367 -0.28564,-0.26368 -0.28564,-0.68116 0,-0.39551 0.28564,-0.65918 0.28565,-0.26367 0.9668,-0.26367 l 4.32861,0 z m -1.86767,18.10547 q 0,-3.51563 -2.37305,-5.93262 -2.37305,-2.41699 -5.64697,-2.41699 -3.2959,0 -5.66895,2.41699 -2.37304,2.41699 -2.37304,5.93262 0,3.49365 2.37304,5.93262 2.37305,2.41699 5.66895,2.41699 3.27392,0 5.64697,-2.41699 2.37305,-2.43897 2.37305,-5.93262 z"
           inkscape:connector-curvature="0" />
        <path
           id="path4255"
           style="font-style:normal;font-variant:normal;font-weight:normal;font-stretch:normal;font-size:45px;line-height:100%;font-family:'courier new';-inkscape-font-specification:'courier new';text-align:center;writing-mode:lr-tb;text-anchor:middle;fill:#ffffff"
           d="m 526.06244,492.27286 -18.80859,0 q 0.48339,3.58154 2.98828,5.77881 2.52685,2.17529 6.24023,2.17529 2.06543,0 4.32861,-0.68115 2.26319,-0.68116 3.69141,-1.80176 0.41748,-0.32959 0.7251,-0.32959 0.35156,0 0.61523,0.28564 0.26367,0.26368 0.26367,0.63721 0,0.37354 -0.35156,0.7251 -1.05469,1.09863 -3.75732,2.06543 -2.68067,0.94482 -5.51514,0.94482 -4.74609,0 -7.93213,-3.09814 -3.16406,-3.12012 -3.16406,-7.53662 0,-4.021 2.96631,-6.89942 2.98828,-2.87842 7.38281,-2.87842 4.52637,0 7.44873,2.96631 2.92236,2.94434 2.87842,7.64649 z m -1.86768,-1.86768 q -0.54931,-3.0542 -2.90039,-4.96582 -2.3291,-1.91162 -5.55908,-1.91162 -3.22998,0 -5.55908,1.88965 -2.3291,1.88965 -2.90039,4.98779 l 16.91894,0 z"
           inkscape:connector-curvature="0" />
        <path
           id="path4257"
           style="font-style:normal;font-variant:normal;font-weight:normal;font-stretch:normal;font-size:45px;line-height:100%;font-family:'courier new';-inkscape-font-specification:'courier new';text-align:center;writing-mode:lr-tb;text-anchor:middle;fill:#ffffff"
           d="m 294.84418,523.16641 0,-1.29638 q 0,-0.65918 0.2417,-0.94483 0.26367,-0.28564 0.68115,-0.28564 0.41748,0 0.65918,0.28564 0.26367,0.28565 0.26367,0.94483 l 0,5.11962 q 0,0.68116 -0.26367,0.9668 -0.2417,0.28565 -0.65918,0.28565 -0.37354,0 -0.63721,-0.26368 -0.2417,-0.26367 -0.28564,-0.85693 -0.10987,-1.8457 -1.99951,-3.27393 -2.54883,-1.95556 -5.80079,-1.95556 -2.13134,0 -4.02099,0.94482 -1.40625,0.68115 -2.24121,1.66992 -1.4502,1.71387 -2.30713,3.80127 -0.61524,1.53809 -0.61524,3.47168 l 0,3.22998 q 0,4.13086 2.98829,7.18506 2.98828,3.03223 6.94335,3.03223 2.37305,0 4.24073,-1.03272 1.88965,-1.03271 3.64746,-3.12011 0.37353,-0.46143 0.83496,-0.46143 0.39551,0 0.63721,0.2417 0.2417,0.2417 0.2417,0.61524 0,0.50537 -0.94483,1.53808 -1.80176,2.02149 -4.06494,3.0542 -2.24121,1.01074 -4.54834,1.01074 -1.99951,0 -4.06494,-0.76904 -1.58203,-0.59326 -2.61475,-1.38428 -1.03271,-0.79101 -2.54883,-2.65869 -1.49414,-1.88965 -2.04345,-3.47168 -0.54932,-1.604 -0.54932,-3.51562 l 0,-3.75733 q 0,-2.72461 1.4502,-5.55908 1.47216,-2.85645 3.99902,-4.37256 2.54883,-1.53808 5.51514,-1.53808 4.57031,0 7.86621,3.12011 z"
           inkscape:connector-curvature="0" />
        <path
           id="path4259"
           style="font-style:normal;font-variant:normal;font-weight:normal;font-stretch:normal;font-size:45px;line-height:100%;font-family:'courier new';-inkscape-font-specification:'courier new';text-align:center;writing-mode:lr-tb;text-anchor:middle;fill:#ffffff"
           d="m 307.63226,518.77188 0,11.35986 q 1.75782,-1.91162 3.36182,-2.68066 1.62598,-0.79102 3.62549,-0.79102 2.15332,0 3.64746,0.76905 1.51611,0.74707 2.52685,2.3291 1.01075,1.56006 1.01075,3.2959 l 0,11.44775 2.06543,0 q 0.68115,0 0.94482,0.26367 0.28564,0.2417 0.28564,0.65918 0,0.39551 -0.28564,0.65918 -0.26367,0.26367 -0.94482,0.26367 l -5.99854,0 q -0.68115,0 -0.9668,-0.26367 -0.28564,-0.26367 -0.28564,-0.65918 0,-0.41748 0.28564,-0.65918 0.28565,-0.26367 0.9668,-0.26367 l 2.06543,0 0,-11.31592 q 0,-1.99951 -1.45019,-3.33984 -1.42823,-1.34033 -3.99903,-1.34033 -2.02148,0 -3.44971,0.98877 -1.03271,0.70312 -3.40576,3.31787 l 0,11.68945 2.08741,0 q 0.65918,0 0.94482,0.26367 0.28564,0.2417 0.28564,0.65918 0,0.39551 -0.28564,0.65918 -0.28564,0.26367 -0.94482,0.26367 l -6.02051,0 q -0.65918,0 -0.94483,-0.26367 -0.28564,-0.26367 -0.28564,-0.65918 0,-0.41748 0.28564,-0.65918 0.28565,-0.26367 0.94483,-0.26367 l 2.0874,0 0,-23.8623 -2.48291,0 q -0.65918,0 -0.94482,-0.26367 -0.28565,-0.26368 -0.28565,-0.68116 0,-0.39551 0.28565,-0.65918 0.28564,-0.26367 0.94482,-0.26367 l 4.32861,0 z"
           inkscape:connector-curvature="0" />
        <path
           id="path4261"
           style="font-style:normal;font-variant:normal;font-weight:normal;font-stretch:normal;font-size:45px;line-height:100%;font-family:'courier new';-inkscape-font-specification:'courier new';text-align:center;writing-mode:lr-tb;text-anchor:middle;fill:#ffffff"
           d="m 338.48187,527.31924 0,4.65821 q 3.60352,-3.25196 5.3833,-4.17481 1.80176,-0.94482 3.31787,-0.94482 1.64795,0 3.0542,1.1206 1.42823,1.09864 1.42823,1.66993 0,0.41748 -0.28565,0.70312 -0.26367,0.26367 -0.68115,0.26367 -0.21973,0 -0.37354,-0.0659 -0.1538,-0.0879 -0.57128,-0.50537 -0.76905,-0.76904 -1.34034,-1.05468 -0.57129,-0.28565 -1.1206,-0.28565 -1.2085,0 -2.92237,0.9668 -1.69189,0.9668 -5.88867,4.72412 l 0,10.10742 8.17383,0 q 0.68115,0 0.9668,0.26367 0.28564,0.2417 0.28564,0.65918 0,0.39551 -0.28564,0.65918 -0.28565,0.26367 -0.9668,0.26367 l -14.47998,0 q -0.65918,0 -0.94482,-0.24169 -0.28565,-0.26368 -0.28565,-0.65918 0,-0.37354 0.26367,-0.61524 0.28565,-0.26367 0.9668,-0.26367 l 4.46045,0 0,-15.38086 -3.40576,0 q -0.65918,0 -0.94483,-0.26367 -0.28564,-0.26367 -0.28564,-0.68115 0,-0.39551 0.26367,-0.65918 0.28565,-0.26368 0.9668,-0.26368 l 5.25146,0 z"
           inkscape:connector-curvature="0" />
        <path
           id="path4263"
           style="font-style:normal;font-variant:normal;font-weight:normal;font-stretch:normal;font-size:45px;line-height:100%;font-family:'courier new';-inkscape-font-specification:'courier new';text-align:center;writing-mode:lr-tb;text-anchor:middle;fill:#ffffff"
           d="m 377.98871,536.87735 q 0,4.21875 -3.03223,7.20703 -3.01025,2.98828 -7.27295,2.98828 -4.30664,0 -7.31689,-2.98828 -3.01026,-3.01025 -3.01026,-7.20703 0,-4.21875 3.01026,-7.20703 3.01025,-3.01026 7.31689,-3.01026 4.2627,0 7.27295,2.98829 3.03223,2.98828 3.03223,7.229 z m -1.86768,0 q 0,-3.47168 -2.48291,-5.91064 -2.46093,-2.43897 -5.97656,-2.43897 -3.51562,0 -5.99854,2.46094 -2.46093,2.43896 -2.46093,5.88867 0,3.42773 2.46093,5.88867 2.48292,2.46094 5.99854,2.46094 3.51563,0 5.97656,-2.43897 2.48291,-2.46093 2.48291,-5.91064 z"
           inkscape:connector-curvature="0" />
        <path
           id="path4265"
           style="font-style:normal;font-variant:normal;font-weight:normal;font-stretch:normal;font-size:45px;line-height:100%;font-family:'courier new';-inkscape-font-specification:'courier new';text-align:center;writing-mode:lr-tb;text-anchor:middle;fill:#ffffff"
           d="m 388.68939,527.31924 0,2.79053 q 1.9336,-1.95556 3.49365,-2.70263 1.56006,-0.74708 3.51563,-0.74708 2.10937,0 3.84521,0.90088 1.23047,0.65918 2.21924,2.19727 1.01074,1.51611 1.01074,3.12012 l 0,11.62353 1.56006,0 q 0.65918,0 0.94483,0.26367 0.28564,0.2417 0.28564,0.65918 0,0.39551 -0.28564,0.65918 -0.28565,0.26367 -0.94483,0.26367 l -4.94384,0 q -0.68116,0 -0.9668,-0.26367 -0.28565,-0.26367 -0.28565,-0.65918 0,-0.41748 0.28565,-0.65918 0.28564,-0.26367 0.9668,-0.26367 l 1.53808,0 0,-11.31592 q 0,-1.95556 -1.42822,-3.29589 -1.42822,-1.36231 -3.82324,-1.36231 -1.82373,0 -3.16407,0.74707 -1.34033,0.7251 -3.82324,3.64746 l 0,11.57959 2.0874,0 q 0.65918,0 0.94483,0.26367 0.28564,0.2417 0.28564,0.65918 0,0.39551 -0.28564,0.65918 -0.28565,0.26367 -0.94483,0.26367 l -6.0205,0 q -0.65918,0 -0.94483,-0.26367 -0.28564,-0.26367 -0.28564,-0.65918 0,-0.41748 0.28564,-0.65918 0.28565,-0.26367 0.94483,-0.26367 l 2.0874,0 0,-15.31494 -1.56006,0 q -0.65918,0 -0.94482,-0.26367 -0.28565,-0.26367 -0.28565,-0.68115 0,-0.39551 0.28565,-0.65918 0.28564,-0.26368 0.94482,-0.26368 l 3.40576,0 z"
           inkscape:connector-curvature="0" />
        <path
           id="path4267"
           style="font-style:normal;font-variant:normal;font-weight:normal;font-stretch:normal;font-size:45px;line-height:100%;font-family:'courier new';-inkscape-font-specification:'courier new';text-align:center;writing-mode:lr-tb;text-anchor:middle;fill:#ffffff"
           d="m 422.54926,517.84903 0,4.76807 -2.72461,0 0,-4.76807 2.72461,0 z m 0.0659,9.47021 0,17.18262 7.25098,0 q 0.68115,0 0.9668,0.26367 0.28564,0.2417 0.28564,0.65918 0,0.39551 -0.28564,0.65918 -0.28565,0.26367 -0.9668,0.26367 l -16.34766,0 q -0.65918,0 -0.94482,-0.26367 -0.28565,-0.26367 -0.28565,-0.65918 0,-0.41748 0.28565,-0.65918 0.28564,-0.26367 0.94482,-0.26367 l 7.25098,0 0,-15.31494 -5.3833,0 q -0.65918,0 -0.9668,-0.26367 -0.28564,-0.26367 -0.28564,-0.65918 0,-0.41748 0.28564,-0.68115 0.28565,-0.26368 0.9668,-0.26368 l 7.229,0 z"
           inkscape:connector-curvature="0" />
        <path
           id="path4269"
           style="font-style:normal;font-variant:normal;font-weight:normal;font-stretch:normal;font-size:45px;line-height:100%;font-family:'courier new';-inkscape-font-specification:'courier new';text-align:center;writing-mode:lr-tb;text-anchor:middle;fill:#ffffff"
           d="m 456.32123,529.18692 0,-0.61523 q 0,-0.68116 0.26367,-0.9668 0.26367,-0.28565 0.65918,-0.28565 0.41748,0 0.68115,0.28565 0.26367,0.28564 0.26367,0.9668 l 0,4.1748 q -0.022,0.68115 -0.28564,0.9668 -0.2417,0.28564 -0.65918,0.28564 -0.37354,0 -0.63721,-0.2417 -0.2417,-0.26367 -0.28564,-0.85693 -0.13184,-1.56006 -2.06543,-2.96631 -1.91162,-1.40625 -5.16358,-1.40625 -4.10888,0 -6.24023,2.5708 -2.13135,2.5708 -2.13135,5.88867 0,3.58155 2.35108,5.91065 2.35107,2.3291 6.08642,2.3291 2.15332,0 4.37256,-0.79102 2.24121,-0.79101 4.04297,-2.54882 0.46143,-0.43946 0.81299,-0.43946 0.37353,0 0.61523,0.26367 0.26367,0.2417 0.26367,0.61524 0,0.94482 -2.21923,2.39502 -3.58155,2.35107 -7.97608,2.35107 -4.46045,0 -7.33887,-2.83447 -2.85644,-2.85645 -2.85644,-7.229 0,-4.46045 2.92236,-7.40479 2.94434,-2.94434 7.40479,-2.94434 4.24072,0 7.11914,2.52686 z"
           inkscape:connector-curvature="0" />
        <path
           id="path4271"
           style="font-style:normal;font-variant:normal;font-weight:normal;font-stretch:normal;font-size:45px;line-height:100%;font-family:'courier new';-inkscape-font-specification:'courier new';text-align:center;writing-mode:lr-tb;text-anchor:middle;fill:#ffffff"
           d="m 476.53607,518.77188 0,25.72998 7.25098,0 q 0.68115,0 0.9668,0.26367 0.28564,0.2417 0.28564,0.65918 0,0.39551 -0.28564,0.65918 -0.28565,0.26367 -0.9668,0.26367 l -16.34766,0 q -0.65918,0 -0.94482,-0.26367 -0.28565,-0.26367 -0.28565,-0.65918 0,-0.41748 0.28565,-0.65918 0.28564,-0.26367 0.94482,-0.26367 l 7.25098,0 0,-23.8623 -5.31738,0 q -0.65918,0 -0.9668,-0.26367 -0.28565,-0.26368 -0.28565,-0.68116 0,-0.39551 0.28565,-0.65918 0.28564,-0.26367 0.9668,-0.26367 l 7.16308,0 z"
           inkscape:connector-curvature="0" />
        <path
           id="path4273"
           style="font-style:normal;font-variant:normal;font-weight:normal;font-stretch:normal;font-size:45px;line-height:100%;font-family:'courier new';-inkscape-font-specification:'courier new';text-align:center;writing-mode:lr-tb;text-anchor:middle;fill:#ffffff"
           d="m 512.57123,537.27286 -18.8086,0 q 0.4834,3.58154 2.98829,5.77881 2.52685,2.17529 6.24023,2.17529 2.06543,0 4.32861,-0.68115 2.26319,-0.68116 3.69141,-1.80176 0.41748,-0.32959 0.7251,-0.32959 0.35156,0 0.61523,0.28564 0.26367,0.26368 0.26367,0.63721 0,0.37354 -0.35156,0.7251 -1.05469,1.09863 -3.75732,2.06543 -2.68067,0.94482 -5.51514,0.94482 -4.74609,0 -7.93213,-3.09814 -3.16406,-3.12012 -3.16406,-7.53662 0,-4.021 2.96631,-6.89942 2.98828,-2.87842 7.38281,-2.87842 4.52637,0 7.44873,2.96631 2.92236,2.94434 2.87842,7.64649 z m -1.86768,-1.86768 q -0.54931,-3.0542 -2.90039,-4.96582 -2.3291,-1.91162 -5.55908,-1.91162 -3.22998,0 -5.55908,1.88965 -2.3291,1.88965 -2.90039,4.98779 l 16.91894,0 z"
           inkscape:connector-curvature="0" />
        <path
           id="path4275"
           style="font-style:normal;font-variant:normal;font-weight:normal;font-stretch:normal;font-size:45px;line-height:100%;font-family:'courier new';-inkscape-font-specification:'courier new';text-align:center;writing-mode:lr-tb;text-anchor:middle;fill:#ffffff"
           d="m 535.66449,528.52774 q 0,-0.63721 0.26367,-0.92285 0.26367,-0.28565 0.65918,-0.28565 0.41748,0 0.68115,0.28565 0.26368,0.28564 0.26368,0.9668 l 0,3.16406 q 0,0.65918 -0.26368,0.94482 -0.26367,0.28565 -0.68115,0.28565 -0.37353,0 -0.63721,-0.2417 -0.24169,-0.2417 -0.28564,-0.79102 -0.13184,-1.31836 -1.3623,-2.17529 -1.80176,-1.23047 -4.76807,-1.23047 -3.09815,0 -4.81201,1.25244 -1.29639,0.94483 -1.29639,2.10938 0,1.31836 1.53809,2.19726 1.05468,0.61524 3.99902,0.94483 3.84521,0.41748 5.33936,0.94482 2.13134,0.76904 3.16406,2.13135 1.05469,1.3623 1.05469,2.94433 0,2.35108 -2.26319,4.19678 -2.26318,1.82373 -6.63574,1.82373 -4.37256,0 -7.16309,-2.21924 0,0.74707 -0.0879,0.9668 -0.0879,0.21973 -0.32959,0.37354 -0.21972,0.1538 -0.50537,0.1538 -0.39551,0 -0.65918,-0.28564 -0.26367,-0.28564 -0.26367,-0.94482 l 0,-3.80127 q 0,-0.65918 0.2417,-0.94483 0.26367,-0.28564 0.68115,-0.28564 0.39551,0 0.65918,0.28564 0.28565,0.26367 0.28565,0.7251 0,1.01074 0.50537,1.69189 0.76904,1.05469 2.43896,1.75782 1.6919,0.68115 4.13086,0.68115 3.60352,0 5.36133,-1.34033 1.75781,-1.34033 1.75781,-2.83448 0,-1.71386 -1.77978,-2.74658 -1.80176,-1.03271 -5.25147,-1.38427 -3.42773,-0.35157 -4.92187,-0.92286 -1.49414,-0.57129 -2.3291,-1.71386 -0.83497,-1.14258 -0.83497,-2.46094 0,-2.37305 2.32911,-3.75733 2.3291,-1.40625 5.55908,-1.40625 3.82324,0 6.21826,1.86768 z"
           inkscape:connector-curvature="0" />
      </g>
      <g
         id="text4260"
         style="font-style:normal;font-variant:normal;font-weight:normal;font-stretch:normal;font-size:116.8249054px;line-height:125%;font-family:'courier new';-inkscape-font-specification:'courier new, Normal';text-align:start;letter-spacing:0px;word-spacing:0px;writing-mode:lr-tb;text-anchor:start;fill:#ff0000;fill-opacity:1;stroke:none;stroke-width:1px;stroke-linecap:butt;stroke-linejoin:miter;stroke-opacity:1">
        <path
           id="path4317"
           d="m 557.17313,542.28099 36.793,0 0,-1.88244 q 0,-1.7113 0.68452,-2.45286 0.68452,-0.74157 1.76835,-0.74157 1.02678,0 1.7113,0.74157 0.68452,0.74156 0.68452,2.45286 l 0,6.67408 -46.31925,0 0,-7.07338 q 14.60312,-13.11999 28.40762,-26.69632 6.44591,-6.33182 8.84173,-9.29807 2.39582,-2.96626 3.25147,-5.19095 0.9127,-2.28174 0.9127,-4.56348 0,-6.16068 -4.96278,-10.89529 -4.96277,-4.7346 -11.97911,-4.7346 -6.27478,0 -11.12347,3.59373 -4.84869,3.59374 -6.27477,8.89878 -0.34226,1.36904 -0.85566,1.76834 -0.68452,0.57044 -1.59721,0.57044 -0.96974,0 -1.65426,-0.62748 -0.62748,-0.68452 -0.62748,-1.59722 0,-2.73808 2.96626,-7.41564 3.0233,-4.67756 8.27129,-7.3586 5.30504,-2.68104 10.83825,-2.68104 8.95582,0 15.40172,6.21773 6.44591,6.21773 6.44591,14.08972 0,3.30852 -1.08383,6.10365 -1.08382,2.73808 -3.70782,6.0466 -2.56695,3.25147 -9.29807,9.86851 -16.88485,16.65668 -27.49493,25.84066 l 0,0.34227 z"
           inkscape:connector-curvature="0" />
      </g>
      <g
         id="text4264"
         style="font-style:normal;font-variant:normal;font-weight:normal;font-stretch:normal;font-size:45px;line-height:125%;font-family:'courier new';-inkscape-font-specification:'courier new, Normal';text-align:start;letter-spacing:0px;word-spacing:0px;writing-mode:lr-tb;text-anchor:start;fill:#ffffff;fill-opacity:1;stroke:none;stroke-width:1px;stroke-linecap:butt;stroke-linejoin:miter;stroke-opacity:1">
        <path
           id="path4320"
           style="fill:#ffffff"
           d="m 301.78754,548.91833 -24.54346,0 q -0.65918,0 -0.94482,-0.26367 -0.28565,-0.2417 -0.28565,-0.65918 0,-0.41748 0.28565,-0.68115 0.28564,-0.2417 0.94482,-0.2417 l 24.54346,0 q 0.68115,0 0.94482,0.2417 0.28565,0.26367 0.28565,0.68115 0,0.41748 -0.28565,0.65918 -0.26367,0.26367 -0.94482,0.26367 z"
           inkscape:connector-curvature="0" />
        <path
           id="path4322"
           style="fill:#ffffff"
           d="m 328.76996,548.91833 -24.54346,0 q -0.65918,0 -0.94482,-0.26367 -0.28565,-0.2417 -0.28565,-0.65918 0,-0.41748 0.28565,-0.68115 0.28564,-0.2417 0.94482,-0.2417 l 24.54346,0 q 0.68115,0 0.94482,0.2417 0.28565,0.26367 0.28565,0.68115 0,0.41748 -0.28565,0.65918 -0.26367,0.26367 -0.94482,0.26367 z"
           inkscape:connector-curvature="0" />
        <path
           id="path4324"
           style="fill:#ffffff"
           d="m 355.75238,548.91833 -24.54346,0 q -0.65918,0 -0.94482,-0.26367 -0.28565,-0.2417 -0.28565,-0.65918 0,-0.41748 0.28565,-0.68115 0.28564,-0.2417 0.94482,-0.2417 l 24.54346,0 q 0.68115,0 0.94482,0.2417 0.28565,0.26367 0.28565,0.68115 0,0.41748 -0.28565,0.65918 -0.26367,0.26367 -0.94482,0.26367 z"
           inkscape:connector-curvature="0" />
        <path
           id="path4326"
           style="fill:#ffffff"
           d="m 382.7348,548.91833 -24.54345,0 q -0.65918,0 -0.94483,-0.26367 -0.28564,-0.2417 -0.28564,-0.65918 0,-0.41748 0.28564,-0.68115 0.28565,-0.2417 0.94483,-0.2417 l 24.54345,0 q 0.68115,0 0.94483,0.2417 0.28564,0.26367 0.28564,0.68115 0,0.41748 -0.28564,0.65918 -0.26368,0.26367 -0.94483,0.26367 z"
           inkscape:connector-curvature="0" />
        <path
           id="path4328"
           style="fill:#ffffff"
           d="m 409.71722,548.91833 -24.54345,0 q -0.65918,0 -0.94483,-0.26367 -0.28564,-0.2417 -0.28564,-0.65918 0,-0.41748 0.28564,-0.68115 0.28565,-0.2417 0.94483,-0.2417 l 24.54345,0 q 0.68116,0 0.94483,0.2417 0.28564,0.26367 0.28564,0.68115 0,0.41748 -0.28564,0.65918 -0.26367,0.26367 -0.94483,0.26367 z"
           inkscape:connector-curvature="0" />
        <path
           id="path4330"
           style="fill:#ffffff"
           d="m 436.69965,548.91833 -24.54346,0 q -0.65918,0 -0.94483,-0.26367 -0.28564,-0.2417 -0.28564,-0.65918 0,-0.41748 0.28564,-0.68115 0.28565,-0.2417 0.94483,-0.2417 l 24.54346,0 q 0.68115,0 0.94482,0.2417 0.28564,0.26367 0.28564,0.68115 0,0.41748 -0.28564,0.65918 -0.26367,0.26367 -0.94482,0.26367 z"
           inkscape:connector-curvature="0" />
        <path
           id="path4332"
           style="fill:#ffffff"
           d="m 463.68207,548.91833 -24.54346,0 q -0.65918,0 -0.94482,-0.26367 -0.28565,-0.2417 -0.28565,-0.65918 0,-0.41748 0.28565,-0.68115 0.28564,-0.2417 0.94482,-0.2417 l 24.54346,0 q 0.68115,0 0.94482,0.2417 0.28565,0.26367 0.28565,0.68115 0,0.41748 -0.28565,0.65918 -0.26367,0.26367 -0.94482,0.26367 z"
           inkscape:connector-curvature="0" />
        <path
           id="path4334"
           style="fill:#ffffff"
           d="m 490.66449,548.91833 -24.54346,0 q -0.65918,0 -0.94482,-0.26367 -0.28565,-0.2417 -0.28565,-0.65918 0,-0.41748 0.28565,-0.68115 0.28564,-0.2417 0.94482,-0.2417 l 24.54346,0 q 0.68115,0 0.94482,0.2417 0.28565,0.26367 0.28565,0.68115 0,0.41748 -0.28565,0.65918 -0.26367,0.26367 -0.94482,0.26367 z"
           inkscape:connector-curvature="0" />
        <path
           id="path4336"
           style="fill:#ffffff"
           d="m 517.64691,548.91833 -24.54346,0 q -0.65918,0 -0.94482,-0.26367 -0.28564,-0.2417 -0.28564,-0.65918 0,-0.41748 0.28564,-0.68115 0.28564,-0.2417 0.94482,-0.2417 l 24.54346,0 q 0.68115,0 0.94483,0.2417 0.28564,0.26367 0.28564,0.68115 0,0.41748 -0.28564,0.65918 -0.26368,0.26367 -0.94483,0.26367 z"
           inkscape:connector-curvature="0" />
        <path
           id="path4338"
           style="fill:#ffffff"
           d="m 544.62933,548.91833 -24.54345,0 q -0.65918,0 -0.94483,-0.26367 -0.28564,-0.2417 -0.28564,-0.65918 0,-0.41748 0.28564,-0.68115 0.28565,-0.2417 0.94483,-0.2417 l 24.54345,0 q 0.68116,0 0.94483,0.2417 0.28564,0.26367 0.28564,0.68115 0,0.41748 -0.28564,0.65918 -0.26367,0.26367 -0.94483,0.26367 z"
           inkscape:connector-curvature="0" />
        <path
           id="path4340"
           style="fill:#ffffff"
           d="m 571.61176,548.91833 -24.54346,0 q -0.65918,0 -0.94483,-0.26367 -0.28564,-0.2417 -0.28564,-0.65918 0,-0.41748 0.28564,-0.68115 0.28565,-0.2417 0.94483,-0.2417 l 24.54346,0 q 0.68115,0 0.94482,0.2417 0.28564,0.26367 0.28564,0.68115 0,0.41748 -0.28564,0.65918 -0.26367,0.26367 -0.94482,0.26367 z"
           inkscape:connector-curvature="0" />
        <path
           id="path4342"
           style="fill:#ffffff"
           d="m 598.59418,548.91833 -24.54346,0 q -0.65918,0 -0.94482,-0.26367 -0.28565,-0.2417 -0.28565,-0.65918 0,-0.41748 0.28565,-0.68115 0.28564,-0.2417 0.94482,-0.2417 l 24.54346,0 q 0.68115,0 0.94482,0.2417 0.28565,0.26367 0.28565,0.68115 0,0.41748 -0.28565,0.65918 -0.26367,0.26367 -0.94482,0.26367 z"
           inkscape:connector-curvature="0" />
      </g>
      <g
         id="text4268"
         style="font-style:normal;font-variant:normal;font-weight:normal;font-stretch:normal;font-size:45px;line-height:100%;font-family:'courier new';-inkscape-font-specification:'courier new, Normal';text-align:center;letter-spacing:0px;word-spacing:0px;writing-mode:lr-tb;text-anchor:middle;fill:#ffffff;fill-opacity:1;stroke:none;stroke-width:1px;stroke-linecap:butt;stroke-linejoin:miter;stroke-opacity:1">
        <path
           id="path4278"
           style="fill:#ffffff"
           d="m 319.05804,568.91394 -2.10937,0 -7.09717,-16.1499 -0.35156,0 0,22.0166 3.40576,0 q 0.65918,0 0.94482,0.26367 0.28565,0.2417 0.28565,0.65918 0,0.39551 -0.28565,0.65918 -0.28564,0.26367 -0.94482,0.26367 l -6.81152,0 q -0.65918,0 -0.94483,-0.26367 -0.28564,-0.26367 -0.28564,-0.65918 0,-0.41748 0.28564,-0.65918 0.28565,-0.26367 0.94483,-0.26367 l 1.56006,0 0,-22.0166 -1.16455,0 q -0.65918,0 -0.94483,-0.2417 -0.28564,-0.26367 -0.28564,-0.68115 0,-0.41748 0.28564,-0.65918 0.28565,-0.26368 0.94483,-0.26368 l 4.52636,0 6.98731,15.90821 6.87744,-15.90821 4.52637,0 q 0.68115,0 0.96679,0.26368 0.28565,0.2417 0.28565,0.65918 0,0.41748 -0.28565,0.68115 -0.28564,0.2417 -0.96679,0.2417 l -1.14258,0 0,22.0166 1.53808,0 q 0.68116,0 0.9668,0.26367 0.28564,0.2417 0.28564,0.65918 0,0.39551 -0.28564,0.65918 -0.28564,0.26367 -0.9668,0.26367 l -6.78955,0 q -0.65918,0 -0.96679,-0.26367 -0.28565,-0.26367 -0.28565,-0.65918 0,-0.41748 0.28565,-0.65918 0.28564,-0.26367 0.96679,-0.26367 l 3.40576,0 0,-22.0166 -0.3955,0 -6.96534,16.1499 z"
           inkscape:connector-curvature="0" />
        <path
           id="path4280"
           style="fill:#ffffff"
           d="m 350.12738,576.62634 0,-2.65869 q -4.021,3.38379 -8.59131,3.38379 -3.31787,0 -5.18555,-1.66992 -1.86767,-1.6919 -1.86767,-4.13086 0,-2.68066 2.46094,-4.68018 2.46093,-1.99951 7.18506,-1.99951 1.27441,0 2.76855,0.17578 1.49414,0.15381 3.22998,0.50537 l 0,-2.98828 q 0,-1.51611 -1.40625,-2.63672 -1.40625,-1.1206 -4.21875,-1.1206 -2.15332,0 -6.04248,1.25244 -0.70313,0.21973 -0.90088,0.21973 -0.35156,0 -0.61523,-0.26368 -0.2417,-0.26367 -0.2417,-0.65918 0,-0.37353 0.21972,-0.59326 0.30762,-0.32959 2.48291,-0.90088 3.42774,-0.92285 5.18555,-0.92285 3.49365,0 5.44922,1.73584 1.95557,1.71387 1.95557,3.88916 l 0,12.2168 2.46093,0 q 0.68116,0 0.9668,0.26367 0.28565,0.2417 0.28565,0.65918 0,0.39551 -0.28565,0.65918 -0.28564,0.26367 -0.9668,0.26367 l -4.32861,0 z m 0,-9.18457 q -1.29639,-0.37353 -2.74658,-0.54931 -1.4502,-0.17579 -3.0542,-0.17579 -4.021,0 -6.28418,1.73584 -1.71387,1.29639 -1.71387,3.09815 0,1.66992 1.29639,2.8125 1.31836,1.14258 3.82324,1.14258 2.39502,0 4.43848,-0.94483 2.06543,-0.96679 4.24072,-3.0542 l 0,-4.06494 z"
           inkscape:connector-curvature="0" />
        <path
           id="path4282"
           style="fill:#ffffff"
           d="m 365.83783,557.59802 0,2.79053 q 1.93359,-1.95557 3.49365,-2.70264 1.56006,-0.74707 3.51563,-0.74707 2.10937,0 3.84521,0.90088 1.23047,0.65918 2.21924,2.19727 1.01074,1.51611 1.01074,3.12011 l 0,11.62354 1.56006,0 q 0.65918,0 0.94483,0.26367 0.28564,0.2417 0.28564,0.65918 0,0.39551 -0.28564,0.65918 -0.28565,0.26367 -0.94483,0.26367 l -4.94385,0 q -0.68115,0 -0.96679,-0.26367 -0.28565,-0.26367 -0.28565,-0.65918 0,-0.41748 0.28565,-0.65918 0.28564,-0.26367 0.96679,-0.26367 l 1.53809,0 0,-11.31592 q 0,-1.95556 -1.42822,-3.2959 -1.42823,-1.3623 -3.82325,-1.3623 -1.82373,0 -3.16406,0.74707 -1.34033,0.7251 -3.82324,3.64746 l 0,11.57959 2.0874,0 q 0.65918,0 0.94483,0.26367 0.28564,0.2417 0.28564,0.65918 0,0.39551 -0.28564,0.65918 -0.28565,0.26367 -0.94483,0.26367 l -6.02051,0 q -0.65918,0 -0.94482,-0.26367 -0.28564,-0.26367 -0.28564,-0.65918 0,-0.41748 0.28564,-0.65918 0.28564,-0.26367 0.94482,-0.26367 l 2.08741,0 0,-15.31494 -1.56006,0 q -0.65918,0 -0.94483,-0.26367 -0.28564,-0.26368 -0.28564,-0.68116 0,-0.3955 0.28564,-0.65918 0.28565,-0.26367 0.94483,-0.26367 l 3.40576,0 z"
           inkscape:connector-curvature="0" />
        <path
           id="path4284"
           style="fill:#ffffff"
           d="m 404.09222,576.62634 0,-2.65869 q -4.02099,3.38379 -8.5913,3.38379 -3.31788,0 -5.18555,-1.66992 -1.86768,-1.6919 -1.86768,-4.13086 0,-2.68066 2.46094,-4.68018 2.46094,-1.99951 7.18506,-1.99951 1.27441,0 2.76855,0.17578 1.49414,0.15381 3.22998,0.50537 l 0,-2.98828 q 0,-1.51611 -1.40625,-2.63672 -1.40625,-1.1206 -4.21875,-1.1206 -2.15332,0 -6.04248,1.25244 -0.70312,0.21973 -0.90088,0.21973 -0.35156,0 -0.61523,-0.26368 -0.2417,-0.26367 -0.2417,-0.65918 0,-0.37353 0.21973,-0.59326 0.30761,-0.32959 2.48291,-0.90088 3.42773,-0.92285 5.18554,-0.92285 3.49366,0 5.44922,1.73584 1.95557,1.71387 1.95557,3.88916 l 0,12.2168 2.46094,0 q 0.68115,0 0.96679,0.26367 0.28565,0.2417 0.28565,0.65918 0,0.39551 -0.28565,0.65918 -0.28564,0.26367 -0.96679,0.26367 l -4.32862,0 z m 0,-9.18457 q -1.29638,-0.37353 -2.74658,-0.54931 -1.45019,-0.17579 -3.0542,-0.17579 -4.02099,0 -6.28418,1.73584 -1.71386,1.29639 -1.71386,3.09815 0,1.66992 1.29638,2.8125 1.31836,1.14258 3.82324,1.14258 2.39502,0 4.43848,-0.94483 2.06543,-0.96679 4.24072,-3.0542 l 0,-4.06494 z"
           inkscape:connector-curvature="0" />
        <path
           id="path4286"
           style="fill:#ffffff"
           d="m 431.97552,560.98181 0,-3.38379 4.32862,0 q 0.65918,0 0.94482,0.26367 0.28565,0.26368 0.28565,0.68116 0,0.3955 -0.28565,0.65918 -0.28564,0.26367 -0.94482,0.26367 l -2.48291,0 0,18.43506 q 0,1.8457 -0.79102,3.2959 -0.52734,0.96679 -1.75781,1.99951 -1.23047,1.03271 -2.24121,1.47216 -1.01074,0.43946 -2.70264,0.43946 l -5.22949,0 q -0.65918,0 -0.94482,-0.26367 -0.28565,-0.2417 -0.28565,-0.65918 0,-0.41748 0.28565,-0.68116 0.28564,-0.26367 0.94482,-0.26367 l 5.29541,0.022 q 1.62598,0 2.92236,-0.83496 1.31836,-0.83496 2.1753,-2.43896 0.48339,-0.92285 0.48339,-2.35108 l 0,-5.5371 q -2.9663,4.06494 -7.64648,4.06494 -3.80127,0 -6.56982,-2.8125 -2.74659,-2.83448 -2.74659,-6.81153 0,-3.97705 2.74659,-6.78955 2.76855,-2.8125 6.56982,-2.8125 4.68018,0 7.64648,4.04297 z m 0,5.55908 q 0,-3.25195 -2.24121,-5.49316 -2.21923,-2.24121 -5.31738,-2.24121 -3.09814,0 -5.31738,2.26318 -2.21924,2.24121 -2.21924,5.47119 0,3.25196 2.21924,5.51514 2.21924,2.24121 5.31738,2.24121 3.09815,0 5.31738,-2.24121 2.24121,-2.26318 2.24121,-5.51514 z"
           inkscape:connector-curvature="0" />
        <path
           id="path4288"
           style="fill:#ffffff"
           d="m 462.73724,567.55164 -18.80859,0 q 0.4834,3.58154 2.98828,5.7788 2.52686,2.1753 6.24024,2.1753 2.06543,0 4.32861,-0.68116 2.26318,-0.68115 3.69141,-1.80175 0.41748,-0.32959 0.72509,-0.32959 0.35157,0 0.61524,0.28564 0.26367,0.26367 0.26367,0.63721 0,0.37353 -0.35156,0.7251 -1.05469,1.09863 -3.75733,2.06543 -2.68066,0.94482 -5.51513,0.94482 -4.7461,0 -7.93213,-3.09814 -3.16407,-3.12012 -3.16407,-7.53663 0,-4.02099 2.96631,-6.89941 2.98828,-2.87842 7.38282,-2.87842 4.52636,0 7.44873,2.96631 2.92236,2.94434 2.87841,7.64649 z m -1.86767,-1.86768 q -0.54932,-3.0542 -2.90039,-4.96582 -2.3291,-1.91162 -5.55908,-1.91162 -3.22999,0 -5.55909,1.88965 -2.3291,1.88965 -2.90039,4.98779 l 16.91895,0 z"
           inkscape:connector-curvature="0" />
        <path
           id="path4290"
           style="fill:#ffffff"
           d="m 471.32855,557.59802 0,1.86768 q 2.35108,-2.52686 4.72412,-2.52686 1.42823,0 2.50489,0.76905 1.07666,0.74707 1.80175,2.28515 1.23047,-1.53808 2.48291,-2.28515 1.27442,-0.76905 2.54883,-0.76905 1.99951,0 3.18604,1.29639 1.56006,1.66992 1.56006,3.64746 l 0,12.89795 1.56005,0 q 0.65918,0 0.94483,0.26367 0.28564,0.2417 0.28564,0.65918 0,0.39551 -0.28564,0.65918 -0.28565,0.26367 -0.94483,0.26367 l -3.40576,0 0,-14.56787 q 0,-1.40625 -0.85693,-2.3291 -0.85693,-0.92285 -1.97754,-0.92285 -1.01074,0 -2.13135,0.76904 -1.1206,0.74707 -2.54883,2.96631 l 0,12.23877 1.53809,0 q 0.65918,0 0.94482,0.26367 0.28565,0.2417 0.28565,0.65918 0,0.39551 -0.28565,0.65918 -0.28564,0.26367 -0.94482,0.26367 l -3.40576,0 0,-14.43603 q 0,-1.47217 -0.87891,-2.41699 -0.85693,-0.9668 -1.93359,-0.9668 -0.98877,0 -1.95557,0.63721 -1.34033,0.90087 -2.8125,3.09814 l 0,12.23877 1.56006,0 q 0.65918,0 0.94483,0.26367 0.28564,0.2417 0.28564,0.65918 0,0.39551 -0.28564,0.65918 -0.28565,0.26367 -0.94483,0.26367 l -4.96582,0 q -0.65918,0 -0.94482,-0.26367 -0.28565,-0.26367 -0.28565,-0.65918 0,-0.41748 0.28565,-0.65918 0.28564,-0.26367 0.94482,-0.26367 l 1.56006,0 0,-15.31494 -1.56006,0 q -0.65918,0 -0.94482,-0.26367 -0.28565,-0.26368 -0.28565,-0.68116 0,-0.3955 0.28565,-0.65918 0.28564,-0.26367 0.94482,-0.26367 l 3.40576,0 z"
           inkscape:connector-curvature="0" />
        <path
           id="path4292"
           style="fill:#ffffff"
           d="m 516.70209,567.55164 -18.8086,0 q 0.4834,3.58154 2.98828,5.7788 2.52686,2.1753 6.24024,2.1753 2.06543,0 4.32861,-0.68116 2.26319,-0.68115 3.69141,-1.80175 0.41748,-0.32959 0.7251,-0.32959 0.35156,0 0.61523,0.28564 0.26367,0.26367 0.26367,0.63721 0,0.37353 -0.35156,0.7251 -1.05469,1.09863 -3.75732,2.06543 -2.68067,0.94482 -5.51514,0.94482 -4.74609,0 -7.93213,-3.09814 -3.16406,-3.12012 -3.16406,-7.53663 0,-4.02099 2.96631,-6.89941 2.98828,-2.87842 7.38281,-2.87842 4.52637,0 7.44873,2.96631 2.92236,2.94434 2.87842,7.64649 z m -1.86768,-1.86768 q -0.54931,-3.0542 -2.90039,-4.96582 -2.3291,-1.91162 -5.55908,-1.91162 -3.22998,0 -5.55908,1.88965 -2.3291,1.88965 -2.90039,4.98779 l 16.91894,0 z"
           inkscape:connector-curvature="0" />
        <path
           id="path4294"
           style="fill:#ffffff"
           d="m 527.73236,557.59802 0,2.79053 q 1.93359,-1.95557 3.49365,-2.70264 1.56006,-0.74707 3.51563,-0.74707 2.10937,0 3.84521,0.90088 1.23047,0.65918 2.21924,2.19727 1.01074,1.51611 1.01074,3.12011 l 0,11.62354 1.56006,0 q 0.65918,0 0.94483,0.26367 0.28564,0.2417 0.28564,0.65918 0,0.39551 -0.28564,0.65918 -0.28565,0.26367 -0.94483,0.26367 l -4.94385,0 q -0.68115,0 -0.96679,-0.26367 -0.28565,-0.26367 -0.28565,-0.65918 0,-0.41748 0.28565,-0.65918 0.28564,-0.26367 0.96679,-0.26367 l 1.53809,0 0,-11.31592 q 0,-1.95556 -1.42822,-3.2959 -1.42822,-1.3623 -3.82324,-1.3623 -1.82373,0 -3.16407,0.74707 -1.34033,0.7251 -3.82324,3.64746 l 0,11.57959 2.0874,0 q 0.65918,0 0.94483,0.26367 0.28564,0.2417 0.28564,0.65918 0,0.39551 -0.28564,0.65918 -0.28565,0.26367 -0.94483,0.26367 l -6.0205,0 q -0.65918,0 -0.94483,-0.26367 -0.28564,-0.26367 -0.28564,-0.65918 0,-0.41748 0.28564,-0.65918 0.28565,-0.26367 0.94483,-0.26367 l 2.0874,0 0,-15.31494 -1.56006,0 q -0.65918,0 -0.94483,-0.26367 -0.28564,-0.26368 -0.28564,-0.68116 0,-0.3955 0.28564,-0.65918 0.28565,-0.26367 0.94483,-0.26367 l 3.40576,0 z"
           inkscape:connector-curvature="0" />
        <path
           id="path4296"
           style="fill:#ffffff"
           d="m 556.89008,557.59802 10.01953,0 q 0.65918,0 0.94482,0.26367 0.28565,0.26368 0.28565,0.68116 0,0.3955 -0.28565,0.65918 -0.28564,0.26367 -0.94482,0.26367 l -10.01953,0 0,12.28271 q 0,1.60401 1.27441,2.68067 1.29639,1.07666 3.7793,1.07666 1.86767,0 4.04297,-0.54932 2.17529,-0.57129 3.38378,-1.27441 0.43946,-0.28565 0.7251,-0.28565 0.35156,0 0.61524,0.28565 0.26367,0.26367 0.26367,0.6372 0,0.32959 -0.28565,0.61524 -0.70312,0.7251 -3.42773,1.58203 -2.70264,0.83496 -5.18555,0.83496 -3.22998,0 -5.1416,-1.51611 -1.91162,-1.51612 -1.91162,-4.08692 l 0,-12.28271 -3.40576,0 q -0.65918,0 -0.94483,-0.26367 -0.28564,-0.26368 -0.28564,-0.68116 0,-0.3955 0.28564,-0.65918 0.28565,-0.26367 0.94483,-0.26367 l 3.40576,0 0,-5.44922 q 0,-0.65918 0.26367,-0.94482 0.26367,-0.28565 0.65918,-0.28565 0.41748,0 0.68115,0.28565 0.26368,0.28564 0.26368,0.94482 l 0,5.44922 z"
           inkscape:connector-curvature="0" />
        <path
           id="path4298"
           style="fill:#ffffff"
           d="m 337.93256,597.76404 0,-0.61524 q 0,-0.65918 0.2417,-0.94482 0.26367,-0.28565 0.68115,-0.28565 0.41748,0 0.65918,0.28565 0.26367,0.28564 0.26367,0.94482 l 0,4.70215 q 0,0.65918 -0.26367,0.94483 -0.2417,0.28564 -0.65918,0.28564 -0.39551,0 -0.65918,-0.26367 -0.2417,-0.26367 -0.26367,-0.85693 -0.10987,-1.84571 -1.91162,-3.31788 -1.77979,-1.47216 -4.68018,-1.47216 -3.0542,0 -4.85596,1.58203 -1.80176,1.56006 -1.80176,3.6914 0,1.09864 0.50538,1.99952 0.50537,0.90087 1.34033,1.47216 0.83496,0.54932 1.88965,0.90088 1.05468,0.32959 3.29589,0.70313 3.75733,0.61523 5.18555,1.25244 1.91162,0.85693 2.87842,2.37305 0.98877,1.51611 0.98877,3.58154 0,3.16406 -2.52686,5.40527 -2.52685,2.21924 -6.81152,2.21924 -4.81201,0 -7.69043,-3.01025 l 0,1.05468 q 0,0.65918 -0.26367,0.94483 -0.2417,0.28564 -0.65918,0.28564 -0.39551,0 -0.65918,-0.28564 -0.26367,-0.28565 -0.26367,-0.94483 l 0,-5.09765 q 0,-0.68115 0.2417,-0.9668 0.26367,-0.28564 0.68115,-0.28564 0.39551,0 0.63721,0.26367 0.26367,0.26367 0.28564,0.85693 0.10986,2.02149 2.15332,3.69141 2.06543,1.64795 5.53711,1.64795 3.47168,0 5.47119,-1.73584 2.02149,-1.73584 2.02149,-4.10889 0,-1.45019 -0.76905,-2.5708 -0.76904,-1.14258 -2.28515,-1.80176 -1.05469,-0.46142 -4.39453,-1.03271 -4.59229,-0.76905 -6.61377,-2.35108 -2.02149,-1.58203 -2.02149,-4.50439 0,-2.90039 2.30713,-4.98779 2.3291,-2.08741 6.13037,-2.08741 3.86719,0 6.65772,2.43897 z"
           inkscape:connector-curvature="0" />
        <path
           id="path4300"
           style="fill:#ffffff"
           d="m 359.22406,593.12781 0,4.76806 -2.72461,0 0,-4.76806 2.72461,0 z m 0.0659,9.47021 0,17.18262 7.25097,0 q 0.68116,0 0.9668,0.26367 0.28565,0.2417 0.28565,0.65918 0,0.39551 -0.28565,0.65918 -0.28564,0.26367 -0.9668,0.26367 l -16.34765,0 q -0.65918,0 -0.94483,-0.26367 -0.28564,-0.26367 -0.28564,-0.65918 0,-0.41748 0.28564,-0.65918 0.28565,-0.26367 0.94483,-0.26367 l 7.25097,0 0,-15.31494 -5.3833,0 q -0.65918,0 -0.96679,-0.26367 -0.28565,-0.26368 -0.28565,-0.65918 0,-0.41748 0.28565,-0.68116 0.28564,-0.26367 0.96679,-0.26367 l 7.22901,0 z"
           inkscape:connector-curvature="0" />
        <path
           id="path4302"
           style="fill:#ffffff"
           d="m 376.89008,602.59802 0,1.86768 q 2.35107,-2.52686 4.72412,-2.52686 1.42822,0 2.50488,0.76905 1.07666,0.74707 1.80176,2.28515 1.23047,-1.53808 2.48291,-2.28515 1.27441,-0.76905 2.54883,-0.76905 1.99951,0 3.18603,1.29639 1.56006,1.66992 1.56006,3.64746 l 0,12.89795 1.56006,0 q 0.65918,0 0.94482,0.26367 0.28565,0.2417 0.28565,0.65918 0,0.39551 -0.28565,0.65918 -0.28564,0.26367 -0.94482,0.26367 l -3.40576,0 0,-14.56787 q 0,-1.40625 -0.85694,-2.3291 -0.85693,-0.92285 -1.97754,-0.92285 -1.01074,0 -2.13134,0.76904 -1.12061,0.74707 -2.54883,2.96631 l 0,12.23877 1.53808,0 q 0.65918,0 0.94483,0.26367 0.28564,0.2417 0.28564,0.65918 0,0.39551 -0.28564,0.65918 -0.28565,0.26367 -0.94483,0.26367 l -3.40576,0 0,-14.43603 q 0,-1.47217 -0.8789,-2.41699 -0.85694,-0.9668 -1.9336,-0.9668 -0.98877,0 -1.95556,0.63721 -1.34034,0.90087 -2.8125,3.09814 l 0,12.23877 1.56005,0 q 0.65918,0 0.94483,0.26367 0.28564,0.2417 0.28564,0.65918 0,0.39551 -0.28564,0.65918 -0.28565,0.26367 -0.94483,0.26367 l -4.96582,0 q -0.65918,0 -0.94482,-0.26367 -0.28564,-0.26367 -0.28564,-0.65918 0,-0.41748 0.28564,-0.65918 0.28564,-0.26367 0.94482,-0.26367 l 1.56006,0 0,-15.31494 -1.56006,0 q -0.65918,0 -0.94482,-0.26367 -0.28564,-0.26368 -0.28564,-0.68116 0,-0.3955 0.28564,-0.65918 0.28564,-0.26367 0.94482,-0.26367 l 3.40577,0 z"
           inkscape:connector-curvature="0" />
        <path
           id="path4304"
           style="fill:#ffffff"
           d="m 418.59418,621.62634 0,-2.70263 q -3.7793,3.42773 -8.17383,3.42773 -2.70264,0 -4.10889,-1.47217 -1.82373,-1.93359 -1.82373,-4.50439 l 0,-11.90918 -2.48291,0 q -0.65918,0 -0.94482,-0.26367 -0.28565,-0.26368 -0.28565,-0.68116 0,-0.3955 0.28565,-0.65918 0.28564,-0.26367 0.94482,-0.26367 l 4.32862,0 0,13.77686 q 0,1.80176 1.14257,2.96631 1.14258,1.16455 2.85645,1.16455 4.50439,0 8.26172,-4.13086 l 0,-11.90918 -3.40576,0 q -0.65918,0 -0.94483,-0.26367 -0.28564,-0.26368 -0.28564,-0.68116 0,-0.3955 0.28564,-0.65918 0.28565,-0.26367 0.94483,-0.26367 l 5.25146,0 0,17.18262 1.56006,0 q 0.65918,0 0.94482,0.26367 0.28565,0.2417 0.28565,0.65918 0,0.39551 -0.28565,0.65918 -0.28564,0.26367 -0.94482,0.26367 l -3.40576,0 z"
           inkscape:connector-curvature="0" />
        <path
           id="path4306"
           style="fill:#ffffff"
           d="m 440.1933,594.05066 0,25.72998 7.25097,0 q 0.68116,0 0.9668,0.26367 0.28565,0.2417 0.28565,0.65918 0,0.39551 -0.28565,0.65918 -0.28564,0.26367 -0.9668,0.26367 l -16.34765,0 q -0.65918,0 -0.94483,-0.26367 -0.28564,-0.26367 -0.28564,-0.65918 0,-0.41748 0.28564,-0.65918 0.28565,-0.26367 0.94483,-0.26367 l 7.25098,0 0,-23.86231 -5.31739,0 q -0.65918,0 -0.96679,-0.26367 -0.28565,-0.26367 -0.28565,-0.68115 0,-0.39551 0.28565,-0.65918 0.28564,-0.26367 0.96679,-0.26367 l 7.16309,0 z"
           inkscape:connector-curvature="0" />
        <path
           id="path4308"
           style="fill:#ffffff"
           d="m 471.54828,621.62634 0,-2.65869 q -4.021,3.38379 -8.59131,3.38379 -3.31787,0 -5.18555,-1.66992 -1.86767,-1.6919 -1.86767,-4.13086 0,-2.68066 2.46094,-4.68018 2.46093,-1.99951 7.18505,-1.99951 1.27442,0 2.76856,0.17578 1.49414,0.15381 3.22998,0.50537 l 0,-2.98828 q 0,-1.51611 -1.40625,-2.63672 -1.40625,-1.1206 -4.21875,-1.1206 -2.15332,0 -6.04248,1.25244 -0.70313,0.21973 -0.90088,0.21973 -0.35156,0 -0.61523,-0.26368 -0.2417,-0.26367 -0.2417,-0.65918 0,-0.37353 0.21972,-0.59326 0.30762,-0.32959 2.48291,-0.90088 3.42774,-0.92285 5.18555,-0.92285 3.49365,0 5.44922,1.73584 1.95556,1.71387 1.95556,3.88916 l 0,12.2168 2.46094,0 q 0.68115,0 0.9668,0.26367 0.28564,0.2417 0.28564,0.65918 0,0.39551 -0.28564,0.65918 -0.28565,0.26367 -0.9668,0.26367 l -4.32861,0 z m 0,-9.18457 q -1.29639,-0.37353 -2.74658,-0.54931 -1.4502,-0.17579 -3.0542,-0.17579 -4.021,0 -6.28418,1.73584 -1.71387,1.29639 -1.71387,3.09815 0,1.66992 1.29639,2.8125 1.31836,1.14258 3.82324,1.14258 2.39502,0 4.43848,-0.94483 2.06543,-0.96679 4.24072,-3.0542 l 0,-4.06494 z"
           inkscape:connector-curvature="0" />
        <path
           id="path4310"
           style="fill:#ffffff"
           d="m 489.43402,602.59802 10.01953,0 q 0.65918,0 0.94483,0.26367 0.28564,0.26368 0.28564,0.68116 0,0.3955 -0.28564,0.65918 -0.28565,0.26367 -0.94483,0.26367 l -10.01953,0 0,12.28271 q 0,1.60401 1.27442,2.68067 1.29638,1.07666 3.77929,1.07666 1.86768,0 4.04297,-0.54932 2.17529,-0.57129 3.38379,-1.27441 0.43945,-0.28565 0.7251,-0.28565 0.35156,0 0.61523,0.28565 0.26367,0.26367 0.26367,0.6372 0,0.32959 -0.28564,0.61524 -0.70313,0.7251 -3.42774,1.58203 -2.70263,0.83496 -5.18554,0.83496 -3.22998,0 -5.1416,-1.51611 -1.91162,-1.51612 -1.91162,-4.08692 l 0,-12.28271 -3.40577,0 q -0.65918,0 -0.94482,-0.26367 -0.28565,-0.26368 -0.28565,-0.68116 0,-0.3955 0.28565,-0.65918 0.28564,-0.26367 0.94482,-0.26367 l 3.40577,0 0,-5.44922 q 0,-0.65918 0.26367,-0.94482 0.26367,-0.28565 0.65918,-0.28565 0.41748,0 0.68115,0.28565 0.26367,0.28564 0.26367,0.94482 l 0,5.44922 z"
           inkscape:connector-curvature="0" />
        <path
           id="path4312"
           style="fill:#ffffff"
           d="m 530.52289,612.15613 q 0,4.21875 -3.03223,7.20703 -3.01025,2.98828 -7.27295,2.98828 -4.30664,0 -7.31689,-2.98828 -3.01026,-3.01025 -3.01026,-7.20703 0,-4.21875 3.01026,-7.20703 3.01025,-3.01026 7.31689,-3.01026 4.2627,0 7.27295,2.98828 3.03223,2.98829 3.03223,7.22901 z m -1.86768,0 q 0,-3.47168 -2.48291,-5.91065 -2.46094,-2.43896 -5.97656,-2.43896 -3.51563,0 -5.99854,2.46094 -2.46093,2.43896 -2.46093,5.88867 0,3.42773 2.46093,5.88867 2.48291,2.46094 5.99854,2.46094 3.51562,0 5.97656,-2.43897 2.48291,-2.46094 2.48291,-5.91064 z"
           inkscape:connector-curvature="0" />
        <path
           id="path4314"
           style="fill:#ffffff"
           d="m 544.9809,602.59802 0,4.65821 q 3.60351,-3.25196 5.3833,-4.17481 1.80175,-0.94482 3.31787,-0.94482 1.64795,0 3.0542,1.1206 1.42822,1.09863 1.42822,1.66992 0,0.41748 -0.28564,0.70313 -0.26368,0.26367 -0.68116,0.26367 -0.21972,0 -0.37353,-0.0659 -0.15381,-0.0879 -0.57129,-0.50537 -0.76904,-0.76904 -1.34033,-1.05469 -0.57129,-0.28564 -1.12061,-0.28564 -1.20849,0 -2.92236,0.9668 -1.6919,0.96679 -5.88867,4.72412 l 0,10.10742 8.17382,0 q 0.68116,0 0.9668,0.26367 0.28565,0.2417 0.28565,0.65918 0,0.39551 -0.28565,0.65918 -0.28564,0.26367 -0.9668,0.26367 l -14.47998,0 q -0.65918,0 -0.94482,-0.2417 -0.28565,-0.26367 -0.28565,-0.65918 0,-0.37353 0.26368,-0.61523 0.28564,-0.26367 0.96679,-0.26367 l 4.46045,0 0,-15.38086 -3.40576,0 q -0.65918,0 -0.94482,-0.26367 -0.28565,-0.26368 -0.28565,-0.68116 0,-0.3955 0.26367,-0.65918 0.28565,-0.26367 0.9668,-0.26367 l 5.25147,0 z"
           inkscape:connector-curvature="0" />
      </g>
    </g>
  </g>
</svg>
